<svg width="100" height="57" viewBox="0 0 100 57" fill="none" xmlns="http://www.w3.org/2000/svg">
<g id="rfxm4kfHoBH4CvNJOijp16nHsv0.svg">
<path id="Vector" d="M16.7707 13.9376C16.5431 13.8972 15.7615 13.6844 15.3138 12.7229C15.3468 12.7927 15.1817 13.0936 15.156 13.233C15.1009 13.5156 15.0679 13.9413 15.0532 14.2238C15.0386 14.5027 15.1156 14.7596 15.1597 15.0238C15.2294 15.4532 15.2954 15.9339 15.2147 16.4L15.167 16.6055C15.156 16.6459 15.145 16.6862 15.1303 16.7266L15.1413 16.7083L11.5193 32.745L15.7798 32.7816L20.0294 13.9633L16.767 13.9339L16.7707 13.9376ZM34.8771 14.1248C34.6496 14.0807 33.8679 13.8716 33.4202 12.9101C33.4532 12.9798 33.2881 13.2807 33.2624 13.4202C33.2074 13.7027 33.1743 14.1284 33.1597 14.411C33.1486 14.6899 33.222 14.9468 33.2661 15.211C33.3211 15.5376 33.3725 15.8972 33.3578 16.2605L31.3982 25.3798L28.6863 14.044L23.9523 14.0037C23.6404 13.9193 23.0019 13.6477 22.6165 12.8183C22.6496 12.8917 22.4844 13.189 22.4587 13.3284C22.4037 13.611 22.3707 14.0367 22.356 14.3193C22.3413 14.5982 22.4184 14.855 22.4624 15.1193C22.5211 15.4826 22.5762 15.8899 22.5431 16.2899L19.0936 32.844L23.3541 32.8807L25.8679 20.5138L28.8404 32.9284L34.0294 32.9725L38.0771 14.1541L34.8734 14.1284L34.8771 14.1248ZM54.5064 18.022C55.2367 17.3761 55.9743 16.6642 56.7707 16.022C59.4532 13.8642 62.4918 12.8697 65.923 13.5266C70.4404 14.3927 73.3652 18.5027 72.8514 23.0899C72.7743 23.7651 72.734 24.4697 72.8441 25.1303C73.2294 27.4202 75.1633 28.9248 77.578 28.9027C80.6349 28.8734 83.4826 26.1358 83.633 23.0826C83.7982 19.7284 80.9395 17.4385 77.6074 18.2495C76.3523 18.5578 75.2954 19.2 74.4147 20.1394C74.2973 20.2642 74.1798 20.3853 74.0587 20.5064C74.0477 20.5174 74.022 20.5101 73.934 20.5211C73.6918 18.9394 73.1266 17.4716 72.1872 16.1174C73.8349 14.7449 75.6551 13.8679 77.7138 13.4789C81.5707 12.756 85.3615 14.3449 87.2074 17.5339C88.7046 20.1174 88.8477 22.8697 87.8129 25.6183C86.1652 30.0037 83.0202 32.7927 78.367 33.5083C72.9395 34.3449 69.211 31.2587 68.2202 27.0789C67.978 26.0624 68.0367 24.9725 67.9853 23.9156C67.9486 23.178 68.0771 22.4183 67.9376 21.7064C67.4826 19.3982 65.4496 17.9596 62.9725 18.0954C59.9597 18.2605 57.2551 21.0422 57.178 24.0587C57.0973 27.2734 59.8569 29.4752 63.0863 28.7633C64.5908 28.4294 65.7945 27.611 66.8074 26.3963C67.0422 27.2037 67.2074 27.9743 67.4899 28.6972C67.7798 29.4349 68.1835 30.1248 68.5688 30.8991C68.4074 31.0349 68.2165 31.2147 68.0074 31.3651C65.8789 32.9064 63.5376 33.7101 60.8661 33.6037C57.4642 33.4679 54.9762 31.9413 53.3541 28.9761C53.0936 28.4954 52.9175 27.9706 52.6606 27.3688C52.5358 27.644 52.433 27.8495 52.345 28.0624C50.6202 32.0807 46.2826 34.3853 42.1064 33.5009C39.5413 32.9578 37.8716 30.7853 38.1064 28.1651C38.3927 24.9908 39.123 21.8862 40.334 18.9468C41.9193 15.0936 46.1505 12.855 50.2239 13.5193C52.5578 13.8972 53.945 15.2404 54.4184 17.578C54.4587 17.7798 54.5028 17.9853 54.5101 18.0183M53.4716 20.0807C53.3982 20.0514 53.3652 20.022 53.3285 20.022C52.3413 20.0147 51.3541 19.989 50.367 20.011C49.956 20.0183 49.8129 19.8862 49.7652 19.4716C49.6404 18.3413 49.0642 17.8312 47.934 17.7541C46.6496 17.6661 45.6697 18.1761 45.0349 19.2844C44.7633 19.7578 44.5248 20.2716 44.3853 20.7963C43.9119 22.5945 43.4569 24.4 43.0642 26.2165C42.9358 26.8147 42.9615 27.4642 43.0165 28.0771C43.0753 28.7009 43.5083 29.0862 44.1138 29.2514C46.0477 29.7761 48.1542 28.2642 48.3156 26.2569C47.6037 26.1468 46.8844 26.0771 46.1872 25.9193C45.4422 25.7505 45.0165 25.3394 45.1009 24.7303C45.2808 23.4202 45.578 22.1321 45.8312 20.833C45.8312 20.8147 45.8936 20.811 45.945 20.7927C46.4587 21.4092 47.0055 21.9963 47.9009 22C49.4202 22.0073 50.9395 22.0037 52.4624 21.989C52.5872 21.989 52.7817 21.9119 52.822 21.8165C53.0569 21.244 53.2587 20.6569 53.4679 20.0734L53.4716 20.0807ZM17.4899 37.0789H13.2257L12.0404 43.7468H16.3193L16.5725 42.2716H14.1615L14.378 41.0605H16.5064L16.7633 39.6514H14.6349L14.822 38.5431H17.2367L17.4899 37.0789ZM20.3303 43.7468H22.6936L26.1762 37.0789H24.1982L21.8422 41.8826L21.1817 37.0789H19.2037L20.3303 43.7468ZM32.2973 37.0789H28.033L26.8477 43.7468H31.123L31.3798 42.2716H28.9688L29.1853 41.0605H31.3138L31.5707 39.6514H29.4422L29.6294 38.5431H32.0441L32.2973 37.0789ZM34.4954 37.0789L33.3138 43.7468H35.178L35.6147 41.2881H35.8129L36.7009 43.7468H38.7633L37.7211 41.145C38.7707 40.844 39.3762 40.0844 39.5266 39.2147C39.7431 38.022 39.0716 37.0752 37.4165 37.0752H34.4954V37.0789ZM37.6257 39.3211C37.5413 39.7835 37.2551 40.022 36.756 40.022H35.8386L36.0734 38.6202H36.9908C37.5009 38.6202 37.6991 38.9027 37.6257 39.3211ZM43.0752 41.6294L42.7083 43.7468H44.5615L44.9395 41.6294L48.0881 37.0789H46L44.3707 39.6624L43.6514 37.0789H41.534L43.0752 41.6294ZM50.0954 43.7468H52.3743L54.0404 39.6514L54.2386 43.7468H56.5175L59.3285 37.0789H57.3248L55.7431 41.6183L55.5266 37.0789H53.4936L51.6477 41.6367L51.6661 37.0789H49.6624L50.0954 43.7468ZM64.323 43.7468H66.1872L67.3615 37.0789H65.5083L65.0642 39.5963H62.8L63.2477 37.0789H61.3908L60.2092 43.7468H62.0734L62.5468 41.0716H64.7964L64.323 43.7468ZM73.967 37.0789H69.6991L68.5175 43.7468H72.7927L73.0496 42.2716H70.6349L70.8551 41.0605H72.9835L73.2367 39.6514H71.1083L71.2991 38.5431H73.7101L73.967 37.0789ZM76.1615 37.0789L74.9798 43.7468H76.8441L77.2808 41.2881H77.4789L78.367 43.7468H80.4294L79.3872 41.145C80.4367 40.844 81.0422 40.0844 81.1927 39.2147C81.4092 38.022 80.7376 37.0752 79.0826 37.0752H76.1615V37.0789ZM79.2918 39.3211C79.2074 39.7835 78.9211 40.022 78.422 40.022H77.5046L77.7395 38.6202H78.6569C79.167 38.6202 79.3652 38.9027 79.2918 39.3211ZM87.9597 37.0789H83.6918L82.5101 43.7468H86.7853L87.0422 42.2716H84.6312L84.8477 41.0605H86.9762L87.233 39.6514H85.1046L85.2918 38.5431H87.7028L87.9597 37.0789Z" fill="white"/>
</g>
</svg>
