<svg xmlns="http://www.w3.org/2000/svg" xmlns:xlink="http://www.w3.org/1999/xlink" xmlns:inkscape="http://www.inkscape.org/namespaces/inkscape" version="1.1" width="841.89" height="595.276" viewBox="0 0 841.89 595.276">
<defs>
<clipPath id="clip_1">
<path transform="matrix(1,0,0,-1,0,595.276)" d="M0 595.276H841.89V0H0Z"/>
</clipPath>
</defs>
<g inkscape:groupmode="layer" inkscape:label="Camada 1">
<g clip-path="url(#clip_1)">
<path transform="matrix(1,0,0,-1,452.6459,266.8802)" d="M0 0C-.681 .285-1.002 .536-1.327 .54-10.514 .618-19.705 .836-28.89 .645-32.706 .566-34.039 1.796-34.475 5.652-35.653 16.172-41.003 20.899-51.518 21.617-63.453 22.433-72.575 17.698-78.476 7.382-80.995 2.974-83.216-1.796-84.505-6.681-88.91-23.411-93.136-40.203-96.785-57.108-97.985-62.671-97.759-68.702-97.216-74.429-96.664-80.236-92.633-83.821-87.018-85.349-69.013-90.244-49.425-76.166-47.917-57.502-54.536-56.486-61.223-55.846-67.714-54.363-74.636-52.782-78.598-48.963-77.825-43.298-76.158-31.128-73.375-19.115-71.015-7.039-70.982-6.879-70.434-6.818-69.958-6.651-65.191-12.392-60.078-17.846-51.779-17.877-37.637-17.934-23.501-17.91-9.362-17.792-8.208-17.78-6.382-17.067-6.025-16.203-3.834-10.871-1.966-5.4 0 0M9.668 19.188C16.447 25.207 23.316 31.831 30.731 37.789 55.69 57.855 83.961 67.102 115.857 60.987 157.887 52.928 185.073 14.681 180.291-27.982 179.587-34.249 179.187-40.805 180.224-46.963 183.807-68.254 201.807-82.278 224.258-82.06 252.699-81.784 279.187-56.326 280.58-27.92 282.107 3.271 255.523 24.595 224.512 17.019 212.852 14.17 203.015 8.188 194.814-.547 193.732-1.699 192.618-2.829 191.496-3.952 191.402-4.047 191.16-3.998 190.33-4.087 188.09 10.612 182.813 24.289 174.072 36.865 189.385 49.636 206.32 57.803 225.497 61.405 261.372 68.138 296.638 53.354 313.824 23.677 327.739-.344 329.073-25.942 319.47-51.521 304.154-92.309 274.872-118.258 231.598-124.922 181.119-132.699 146.424-103.992 137.207-65.125 134.965-55.676 135.499-45.536 135.029-35.702 134.702-28.853 135.893-21.78 134.586-15.162 130.352 6.318 111.458 19.691 88.384 18.437 60.351 16.914 35.215-8.968 34.496-37.044 33.73-66.961 59.429-87.423 89.443-80.801 103.456-77.707 114.645-70.086 124.061-58.788 126.238-66.284 127.783-73.464 130.422-80.21 133.106-87.07 136.871-93.506 140.449-100.697 138.933-101.959 137.161-103.619 135.211-105.034 115.404-119.382 93.622-126.833 68.794-125.848 37.159-124.595 13.994-110.372-1.099-82.787-3.537-78.331-5.162-73.436-7.548-67.836-8.715-70.379-9.651-72.314-10.499-74.287-26.548-111.673-66.894-133.106-105.724-124.867-129.602-119.802-145.124-99.603-142.932-75.228-140.273-45.706-133.466-16.829-122.202 10.538-107.459 46.372-68.108 67.203-30.186 61.035-8.487 57.508 4.417 45.019 8.827 23.294 9.208 21.406 9.599 19.518 9.668 19.188" fill="#fe771c"/>
<path transform="matrix(1,0,0,-1,279.7157,211.4451)" d="M0 0C-2.114 .393-9.397 2.355-13.541 11.287-13.233 10.624-14.757 7.842-15.018 6.528-15.541 3.899-15.84-.065-15.963-2.673-16.085-5.276-15.37-7.657-14.971-10.132-14.477-13.184-13.987-16.532-14.119-19.883L-32.337-104.711-57.565 .74-101.601 1.11C-104.513 1.903-110.443 4.413-114.025 12.138-113.719 11.476-115.243 8.689-115.502 7.378-116.024 4.749-116.323 .79-116.443-1.825-116.568-4.431-115.854-6.809-115.452-9.279-114.905-12.674-114.379-16.432-114.693-20.155L-146.797-174.147-107.17-174.484-83.789-59.426-56.126-174.916-7.873-175.325 29.793-.253ZM-168.445 1.753C-170.559 2.143-177.845 4.105-181.986 13.037-181.681 12.378-183.204 9.594-183.467 8.281-183.99 5.65-184.284 1.692-184.408-.923-184.532-3.523-183.818-5.907-183.418-8.378-182.772-12.359-182.155-16.843-182.905-21.184L-183.333-23.091C-183.441-23.472-183.531-23.851-183.664-24.225L-183.551-24.042-217.238-173.224-177.613-173.561-138.079 1.494Z" fill="#fe771c"/>
</g>
</g>
</svg>
